<svg xmlns="http://www.w3.org/2000/svg" width="1080" height="1080" viewBox="0 0 1080 1080" xml:space="preserve"><g transform="translate(540 540)"/>
    <g transform="translate(540 540)"/>
    <path
        style="stroke:#000;stroke-width:0;stroke-dasharray:none;stroke-linecap:butt;stroke-dashoffset:0;stroke-linejoin:miter;stroke-miterlimit:4;fill:#e8f108;fill-rule:nonzero;opacity:1"
        vector-effect="non-scaling-stroke" transform="translate(-596.44 -628.647)scale(3.02)"
        d="m265.5 437.37-1.875 1.676-25.75 25.75 25.75 25.75a77.73 77.73 0 0 0 49.988 22.699 77.75 77.75 0 0 0 52.523-15.988v-8.684l-66.203-66.105v.004a9.905 9.905 0 0 1 0-14.012c3.867-3.867 10.141-3.867 14.008 0l52.195 52.293v-46.766a15.4 15.4 0 0 1-2.074-1.383l-39.465-39.465a9.91 9.91 0 0 1 0-14.012 9.91 9.91 0 0 1 14.012 0l27.527 27.625v-79.816c0-5.449 4.414-9.867 9.863-9.867 5.45 0 9.867 4.418 9.867 9.867v79.816l27.527-27.625c3.867-3.867 10.141-3.867 14.012 0a9.91 9.91 0 0 1 0 14.012l-39.465 39.465a16 16 0 0 1-2.074 1.383v46.766l52.191-52.293c3.871-3.867 10.145-3.867 14.012 0a9.91 9.91 0 0 1 0 14.012l-66.203 66.102v55.152c0 5.45 4.418 9.867 9.867 9.867s9.867-4.418 9.867-9.867v-35.418a77.97 77.97 0 0 0 44.008 3.34 77.96 77.96 0 0 0 38.77-21.102l25.75-25.75-25.75-25.75-1.875-1.676a100.56 100.56 0 0 0 37.492-78.438V311.87h-47.062a99.8 99.8 0 0 0-36.109 6.809 104.48 104.48 0 0 0-30.289-66.008L376 218.14l-34.53 34.53a104.48 104.48 0 0 0-30.29 66.009 99.8 99.8 0 0 0-36.109-6.809H228.01v47.062a100.53 100.53 0 0 0 37.492 78.438z"/></svg>
