<?xml version="1.0" encoding="utf-8"?>
<!-- Generator: Adobe Illustrator 24.0.1, SVG Export Plug-In . SVG Version: 6.00 Build 0)  -->
<svg version="1.1" id="Layer_1" xmlns="http://www.w3.org/2000/svg" xmlns:xlink="http://www.w3.org/1999/xlink" x="0px" y="0px"
	 viewBox="0 0 804 136" style="enable-background:new 0 0 804 136;" xml:space="preserve">
<style type="text/css">
	.st0{fill:#596667;}
	.st1{fill:#E8F108;}
</style>
<g>
	<path class="st0" d="M14.5,96.2L12,86.5c0.4,0.6,0.7,1.1,0.8,1.3c0.2,0.3,0.3,0.5,0.3,0.6l3.7,6.2c0.6,1,1.3,2.1,2.2,3.5
		c0.9,1.4,1.9,2.9,3,4.5c1.1,1.6,2,2.9,2.6,3.8c0.9,1.4,1.8,2.6,2.7,3.6l1.8,0.9c4.8,2.1,7.3,3.3,7.7,3.5c1.9,0.8,3.6,1.5,5.2,2.4
		l-12.6-3l-5.7-1.5c-1.6-0.4-2.6-0.7-3-1.1c-0.4-0.3-1.1-1.4-2-3.3c-0.7-1.4-1.5-3.5-2.5-6.3C15.4,99,14.8,97.2,14.5,96.2z
		 M35.5,24.9l-6.8,5.6L23,35.8l-6.3,6.4l-3.1,3.5l1.1-8.1l5.7-4.1c3.3-2.4,5.9-4.1,7.7-5.1l3.6-1.8C33.2,25.8,34.5,25.3,35.5,24.9z
		 M74.8,21.7l10.6,3l4.8,1.9c0.9,0.3,1.6,0.5,2,0.7c0.8,0.3,1.2,0.5,1.4,0.5c0.1,0.1,0.5,0.2,1.2,0.5c1.5,0.5,2.7,1,3.4,1.5
		c0.7,0.6,1.5,1.5,2.5,2.8c1.9,2.4,3.8,5.5,5.9,9.2c2.1,3.8,3.7,7.4,5.1,10.8c0.9,2.1,1.3,3.4,1.4,3.9c0.2,0.9,0.3,2.3,0.3,4.2v1.8
		l0.2,7.4l-0.2,9.1c0,1.4-0.1,2.5-0.2,3.4c-0.2,0.8-0.6,1.9-1.2,3.4l-0.8,2.1c-1.3,3.1-3.4,7.2-6.3,12.2c-1,1.8-2.2,3.2-3.4,4.3
		c-1.3,1.1-3.6,2.5-6.8,4.2c-1,0.5-2,1-3.2,1.4c-0.6,0.2-1.2,0.4-1.9,0.6s-2.1,0.7-4.1,1.4c-2.1,0.7-3.8,1.4-5.2,1.9
		c-3.3,1.1-6.1,1.9-8.3,2.4c-5.2,1.2-8.3,1.8-9.2,1.8c-0.9,0-2.5-0.3-4.7-0.8c-2.2-0.6-4.2-1.2-6.2-1.8l-18.5-6.9
		c-1.3-0.6-2.2-1.3-2.8-2.1l-2.5-3.4c-0.8-1-1.2-1.6-1.4-1.8l-4.4-7l-4.4-7.8c-0.7-1.4-1.2-2.4-1.4-3c-0.3-0.6-0.4-1.5-0.5-2.8
		l0.1-3.7L16,64.8c0-4.8,0.5-9.8,1.4-15c0.3-1.3,0.5-2.2,0.5-2.5c0.3-1.2,0.5-2,0.7-2.3c0.2-0.3,0.6-0.9,1.4-1.7
		c0.3-0.2,0.7-0.6,1.2-1.2c6.4-6.2,11-10.3,13.8-12.2c2.9-2.1,6.7-3.8,11.3-5.1l15.6-4.4l2.7-0.5c0.9-0.2,1.5-0.2,1.7-0.2
		c0.5,0,1.3,0.2,2.5,0.5c0,0,0.2,0,0.5,0.1c0.3,0.1,0.6,0.1,0.8,0.2c0.3,0.1,0.6,0.1,0.9,0.2c0.5,0.1,0.9,0.1,1.2,0.2
		C73.5,21.2,74.3,21.5,74.8,21.7z M37.2,36c-2.7,2.1-4.9,4-6.5,5.5L26,46.4c-1.6,1.6-2.4,2.4-2.4,2.5L23,57.7l-0.3,11.8l0.2,8.8
		l0.3,6.2l6.5,9.7c0,0.2,0.6,0.8,1.5,2.1l2.1,2.7c0,0.1,1.1,1.4,3.3,3.9l0.4,0.2c-0.3-0.6-0.6-0.9-0.8-1.1l-0.5-0.9
		c-2.7-4.5-4.7-8.2-6-11.2l-2.4-5.6c-0.4-0.9-0.7-1.7-0.8-2.3c-0.1-0.7-0.2-2.1-0.2-4c0-2.2,0-3.6,0.1-4.2l0.3-8.5l0.5-8.1l1.1-9.6
		c0-0.3,0.5-1.1,1.6-2.3c0.2-0.2,0.5-0.5,0.8-0.9c0.1-0.2,0.9-1.2,2.4-3c0.6-0.9,1.4-1.8,2.3-2.8l0.8-0.9c0.2-0.3,0.4-0.5,0.5-0.7
		c0.2-0.2,0.3-0.3,0.4-0.5C37,36.2,37.1,36.1,37.2,36z M64.6,30.5c-3.2,2.6-6.6,6.4-10.2,11.2l-0.9,10.3l-0.3,11.4l0.1,9.6l0.4,6.4
		l1.1,14.6c0,0.2,0.2,0.6,0.6,1.1l3.1,4.8c1.2,1.7,2.7,3.8,4.6,6.2l0.9,1.1c3.6-2.5,6.4-5.3,8.5-8.4l2-2.9c0.2-0.2,0.3-0.4,0.3-0.5
		l-0.1-9.8l-0.5-16.9l-1.1-15.5l-1.4-12.1c0-0.4-0.2-0.8-0.6-1.4c-0.2-0.3-0.4-0.7-0.6-1.1c-0.3-0.5-0.7-1.1-1.1-1.8
		c-0.2-0.3-0.4-0.7-0.7-1.2c-0.3-0.5-0.7-1.1-1.1-1.7l-2-2.5C65.1,31.1,64.8,30.7,64.6,30.5z M59.1,50.2l0.8,9.7l1.3,8.7l2.1,10.8
		l2.1,9.3l1.1,3.9c0.2,0.3,0.2,0.5,0.3,0.7c0,0.2,0,0.3,0,0.3c0.2,0.5,0.2,0.9,0.2,1.1c0,0.2-0.1,0.6-0.2,1.2l-0.6,2.1
		c-0.1,0.4-0.3,0.9-0.7,1.5c-1.8-2.2-3.2-4.3-4.2-6.1c-1-1.8-2.1-4.2-3.1-7.1l-0.6-10l0.2-10.3l0.6-9.9
		C58.5,53.5,58.7,51.5,59.1,50.2z M65.9,55.6L63,38.8l2.4-2.1c1,2.1,1.8,4.8,2.4,8.1c0.6,3.6,0.8,7.4,0.8,11.5
		c0,2.5-0.2,5.7-0.7,9.4L65.9,55.6z M74.8,31.8c1.5,3.7,2.4,6.3,2.9,7.8l0.7,2.2c0.3,1.1,0.4,1.6,0.5,1.7l1.2,8.5l1.1,10.9l0.7,11.4
		l0.3,12.4l0.1,5.5v1.3c0,0.4,0,0.7,0.1,0.8V95c0,0.9-0.4,2.2-1.3,3.8l-1.4,2.7l-3.8,6.5c1.6-1.6,3.2-3.4,4.9-5.5
		c1.2-1.4,2.5-3.1,3.9-5.1l0.4-13.3l-0.1-13.2l-0.9-17.2l-1-8.5C80.8,40.9,78.1,36.5,74.8,31.8z M87.4,19.7l4.7,1l18.4,4.7l1.8,9.6
		l0.6,3.2c0.6,3.2,0.9,5.9,1,8.1l-0.6-1.4c-2.6-5.7-4.6-9.7-6-11.9l-1.6-2.7c-0.2-0.2-0.4-0.5-0.7-1.1l-3.5-2.1
		c-0.1,0-0.2-0.1-0.3-0.2c-0.2-0.1-0.4-0.2-0.6-0.3c-0.4-0.3-0.9-0.6-1.7-0.9c-0.9-0.5-1.7-1-2.6-1.4l-6.4-3.1c0,0-0.4-0.3-1.4-0.8
		c-0.1,0-0.1-0.1-0.2-0.2c-0.1-0.1-0.2-0.1-0.2-0.1C87.7,19.9,87.5,19.7,87.4,19.7z M93.5,116l9.5-6.8l11.4-8.5
		c-0.7,2.5-1.5,4.6-2.3,6.5c-0.2,0.4-0.5,0.8-1,1.1l-3,1.7c-2,1.2-5.1,2.7-9.1,4.3C97.6,114.7,95.8,115.3,93.5,116z"/>
	<path class="st0" d="M142.1,27.4c-0.4,0.5-1.2,1.4-2.5,2.8c-0.3,0.3-1,1-2.1,2.2c-0.3,0.3-0.4,0.5-0.5,0.6
		c-0.1,0.2-0.3,0.4-0.5,0.6c-0.6,0.6-1,1-1.2,1.3c-1.6,1.8-2.7,3-3.1,3.5c-0.5,0.5-0.8,0.9-1.1,1.2l-2.5,2.9l-2.2,2.7
		c-0.1,0.1-0.1,0.1-0.1,0.2c0,0.1-0.1,0.1-0.2,0.2c-0.1,0.1-0.2,0.2-0.3,0.3c-0.1,0.1-0.2,0.2-0.3,0.3l-2.4,9.4l-1.2,6.1
		c-0.1-1.5-0.2-3.1-0.2-4.9V54l0.1-9.3c0-0.8,0.2-1.4,0.5-1.8c0.2-0.3,0.8-0.9,1.7-1.8c0.1-0.1,0.2-0.2,0.3-0.3
		c0.1-0.1,0.2-0.2,0.3-0.3c0.2-0.2,0.6-0.5,1.1-1c0.9-0.9,2.6-2.3,5.2-4.3C135.1,31.8,138.8,29.3,142.1,27.4z M122.5,89l-0.1-5.1
		l1.2,2.1c0.1,0.2,0.4,0.6,0.9,1.5c0.5,0.8,0.9,1.5,1.3,2c0.6,1,1.1,1.7,1.3,2.2c0.3,0.5,0.7,1.1,1.2,2.1c2.6,4.2,4.2,6.7,4.8,7.5
		c0.4,0.7,1.5,2.1,3.3,4.3c2.1,2.4,3.6,4.3,4.3,5.5l-7.5-5.3l-10.3-7.7L122.5,89z M172,21.6l3-0.2l9,1.5c0.7,0.1,2,0.4,3.9,0.9l4,1
		c2.7,0.7,5.9,1.7,9.6,3.2l-3.9,6.6c-1.7,2.6-3.6,5.2-5.7,7.8c-5-4.7-10.9-8.9-17.5-12.5c-1.8,1.1-4,2.7-6.6,4.9l-0.8,3.4
		c-0.3,1.1-0.5,2.2-0.6,3.1l-1,7.6l-0.8,9.9l-0.5,13.7c0,1.4,0.1,3.1,0.3,5.1l0.3,3.8c0.5,6,1.9,12.5,4.1,19.4c2.9,1.1,6,2,9.3,2.7
		l10.3-6.7l7.5-5.7l2.4,3.4c0.2,0.2,0.3,0.4,0.5,0.8c0.2,0.3,0.4,0.7,0.7,1.2l1.8,3.2c0.8,1.3,1.5,2.6,2.1,4
		c-0.8,0.4-1.5,0.9-2.3,1.4l-2.6,1.6c-4.5,2.9-9.8,5.4-16,7.5l-3.4,1.2c-2.5,0.9-4.2,1.4-5.1,1.4c-0.5,0-1.8-0.2-4.1-0.7l-3.5-0.6
		c-2.5-0.6-5.3-1.3-8.5-2.4c-3.8-1.2-6.5-2.2-8-2.8l-4-1.7c0,0,0-0.1-0.1-0.1c-0.1,0-0.1,0-0.2,0c-0.1,0-0.1-0.1-0.2-0.1
		c-0.1,0-0.1,0-0.2,0c-0.2-0.1-0.4-0.2-0.7-0.2c-0.3-0.3-1.8-2.1-4.5-5.3c-1.8-2.1-2.9-3.5-3.5-4.3l-4.3-6.5l-4.3-7.9
		c-0.7-1.2-1.2-2.3-1.5-3.3c-0.2-0.8-0.4-1.9-0.5-3.3l-0.2-7.7c0-1.9,0.1-3.7,0.3-5.5l0.5-6c0.4-4,0.8-6.7,1.3-8.1
		c0.8-1.3,2.4-3.4,4.6-6.4c2-2.5,3.6-4.3,4.8-5.4l7.4-6.8c0.6-0.6,1.8-1.6,3.9-3.1c0.4-0.3,0.7-0.5,0.8-0.7c0.2-0.2,0.3-0.3,0.4-0.3
		c0,0,0.3-0.2,0.6-0.5c0.4-0.3,0.8-0.6,1.2-0.9c1-0.4,2.9-1,5.7-1.8c2.8-0.9,5.2-1.4,7.1-1.6L172,21.6z M146.5,22h0.4
		c-0.3,0.2-0.6,0.3-0.8,0.4c-0.2,0.1-0.3,0.2-0.3,0.2c0,0-0.1,0-0.1,0l-7.1,3.5c-3.6,1.8-7.6,4.1-11.8,6.8c0.4-1.1,1.4-3,2.9-5.5
		l0.8-1.2c0-0.1,0.2-0.3,0.3-0.6c0.2-0.3,0.3-0.6,0.4-0.8C137.5,23.3,142.6,22.3,146.5,22z M149.1,35.3l0.8-1.1
		c-4.3,4.1-7.4,7.2-9.3,9.4c-2,2.2-4.3,5-6.8,8.5l-1.2,9.7l-0.4,4.6c-0.1,2.3-0.2,4.4-0.2,6.2c0,1.8,0,3.8,0.2,5.9l1.7,3.3
		c1.9,3.8,4.1,7.5,6.4,10.8c2.4,3.4,5.2,6.9,8.4,10.5l-2.7-4.2l-4.7-7.9l-1.7-3.4l-4-8.7c-0.2-2.4-0.2-4.2-0.2-5.5
		c0-2.4,0.1-4.4,0.3-6.1c0.5-3.6,0.8-6.4,1.1-8.2c0.6-4.1,1.7-7.4,3.3-9.9L149.1,35.3z M156.2,120.6l-10.9-6.8
		c0.3,0.1,0.6,0.2,1,0.3c0.4,0.1,0.6,0.1,0.7,0.2c0.1,0.1,0.2,0.1,0.3,0.1l12.2,4.2c0.3,0.1,1.3,0.4,3.2,1l2.9,0.8
		c1.8,0.6,3.2,1.1,4.4,1.7l-11.8-0.3L156.2,120.6z M167.2,76.7l3.6,9.3l3.1,7c4.9-0.8,8.3-1.5,10.4-2.1c2.9-0.9,6-2,9.2-3.3
		c-0.8,0.8-2.3,1.9-4.6,3.6c-0.1,0-0.1,0-0.2,0.1c-0.1,0.1-0.2,0.1-0.3,0.2l-0.5,0.3c-0.1,0.1-0.2,0.2-0.4,0.3
		c-0.6,0.4-0.9,0.6-1,0.7L175.9,99l-4.6-1.7C168.8,90,167.4,83.2,167.2,76.7z M176,37.2c-1.8,4.4-2.9,7-3.3,8.1
		c-1.2,3.3-2,5.9-2.5,7.7l-1.9,6.7c-0.1,0.2-0.1,0.4-0.2,0.7c0,0.2,0,0.3-0.1,0.5c-0.1,0.2-0.1,0.3-0.2,0.5l0.2-3.9
		c0-1.8,0.4-4.8,0.9-8.8c0.6-4.7,1.1-7.9,1.5-9.7C172.1,38,173.9,37.4,176,37.2z M185.5,117.2l11.4-4.9l-1,1.2l-0.8,0.7l-4.3,3.8
		l-3.2,2.7c-0.2,0.2-0.5,0.4-0.8,0.7L173,122L185.5,117.2z M182.4,19.2l-1.9-0.5l11,0.5l9,0.9l4.6,0.5l-1.7,3.5l-3.6-1.1l-8.7-2.1
		L182.4,19.2z M201.2,37l3.6-4.8c-0.2,1.1-0.9,3.1-2.2,6.2c-0.2,0.4-0.9,2-2,4.8c-0.7,1.5-1.3,2.9-1.8,4.3l-1.7,3.8
		c0,0-0.3,0.7-0.9,2.2c-4.2-2.8-9.2-5-15.2-6.5v-1.4c0-1.7,0.4-3.5,1.2-5.5c3.2,2.3,6.3,5,9.2,8.1l2.7-2.8L201.2,37z M201.8,83.7
		c0,0.2,0.1,0.4,0.1,0.6l0.2,1.3l0.7,3.4c0.2,0.8,0.4,2.3,0.6,4.5c0,0.1,0,0.2,0.1,0.5c0,0.3,0.1,0.6,0.1,0.9
		c-1.4-2.3-2.9-4.4-4.5-6.5l-1-1.2c0,0-0.1-0.2-0.2-0.4c-0.2-0.2-0.3-0.4-0.5-0.6c0.2-0.2,0.4-0.3,0.6-0.4c0.2-0.1,0.4-0.2,0.5-0.3
		l1.1-0.5c0.2-0.1,0.4-0.2,0.6-0.3c0.2-0.1,0.4-0.3,0.7-0.5C201.1,84,201.4,83.9,201.8,83.7z"/>
	<path class="st0" d="M210.6,38.7l4.2-14l11.5,0.4l16.7,0.2l19.5-0.2l24.5-1.2l3,7.8l2.9,10l0.7,3.3c-5.2-2.9-10.5-4.9-15.9-6.2
		l-10-2.4l-0.2,14.1l-0.1,22.6l0.3,17l0.5,13.3c0,1.4,0.5,4.1,1.2,8c0,0.1,0.1,0.3,0.1,0.5c0,0.2,0,0.4,0.1,0.5
		c0,0.1,0.1,0.2,0.1,0.3c0,0.2,0,0.3,0,0.5h-19.6l-17.2,0.5l1.1-10.3l0.7-12l0.2-17.2l-0.1-18.2l-0.2-11.7l-0.4-7.4
		c-10.7,1.5-19,4-24.8,7.5L210.6,38.7z M231.1,40.5l0.6,7.4c0.3,3.8,0.5,9.1,0.5,15.7c0,2.9,0,4.9-0.1,6.1l-1.8-11.5
		c-0.3-1.5-0.8-3.9-1.5-7.1c-0.3-1.4-0.7-2.7-1.1-3.9c-2.6-0.3-4.7-0.5-6.2-0.5c-2.5,0-5.4,0.3-8.7,1l-1.8,0.4
		C216.2,45,222.9,42.5,231.1,40.5z M224.2,52.3c0.2,0.8,0.2,1.3,0.2,1.5l0.8,4.7c0.3,2,0.6,4.5,1,7.4c0.2,1.8,0.4,2.9,0.5,3.3
		c0,0.5,0,0.9,0.1,1.3l0.7,9.2c0.2,1.8,0.2,2.9,0.2,3.3v1.2c-0.5-1.3-0.7-2.1-0.7-2.4l-2.1-8.7c-0.2-1.3-0.9-3.8-2-7.7
		c-0.5-2.1-1.1-4.2-1.8-6.4l-1.5-4.8l-0.2-0.8c0,0-0.2-0.5-0.5-1.3c1.1-0.1,1.6-0.2,1.4-0.2C221,52,222.3,52.1,224.2,52.3z
		 M229.3,98.9c0.1,1.5,0.2,2.7,0.2,3.6c0,0.9,0.1,1.5,0.1,1.9l0.2,8.7l-0.2,4.1l8.7-0.5l7.4-0.2h5c2.5,0.1,5.3,0.3,8.4,0.8l-13,1.2
		l-12,1.7l-8.1,1.5l1.4-10l1.4-11.2c0-0.1,0.1-0.3,0.1-0.5c0-0.3,0-0.5,0.1-0.6c0-0.1,0.1-0.2,0.1-0.3
		C229.3,99.1,229.3,99,229.3,98.9z M262.4,18.3l18.9-0.9l10.3-0.2l0.5,2.7l0.6,9.4l-0.5-1.1c-0.1-0.2-0.2-0.3-0.3-0.5l-1.4-3.5
		c-0.4-0.9-0.9-2.1-1.6-3.4l-14.4,0.5l-18.8,0.5l-22.9-0.7l11-1.3L262.4,18.3z M246.8,35.7l-3.9,0.1l-0.5,42.9l-1.1,26.6l0.9-0.2
		c0.3-1.8,0.6-4,0.8-6.5l1.3-13.8l1.4-20l0.8-13.7l0.3-10L246.8,35.7z M272,42.8l0.2-1.4c2.5,0.9,4.5,1.7,6,2.4
		c-1.1,4.2-2.2,9.2-3.1,14.9c-1.1,5.8-1.8,10.7-2.3,14.6l-1.3,11.2V85c0,0.2,0,0.3,0,0.5c0,0.2-0.1,0.3-0.1,0.4L271,75.7l-0.2-9.4
		l0.4-13.1l0.2-2.7l0.2-3.7C271.7,45.7,271.8,44.3,272,42.8z M271.5,91.1l3.3,11.6c0-0.2,0.2,0.3,0.5,1.3l1.6,4.3
		c1.1,2.7,2,4.8,2.6,6.2c-2.3-0.4-4-0.6-5.2-0.6c-0.2-0.6-0.5-2-1-4.2l-0.5-3c-0.4-1.4-0.7-4.6-1.1-9.5
		C271.6,95.8,271.5,93.7,271.5,91.1z M283,46.1l4.3,2.7c-0.2,0.4-0.3,0.7-0.4,0.8s-0.1,0.3-0.2,0.3l-1.1,1.7c-1.8,3-3.5,6.3-4.9,9.7
		l-3,7.6l0.2-1.9C278.9,59.7,280.6,52.7,283,46.1z"/>
	<path class="st0" d="M309.8,52.8l15.6-33.9l6.2-2l-6.5,14.5l-5.3,11.3l-12.7,26.3l-10,19.9l-7.8,15.2l4.3-12.1l4.9-12.5l5.9-14.5
		L309.8,52.8z M329.7,33.6l9-15.9c2.2,2.9,4.4,6.5,6.5,10.7l10.2,19.7l12.4,24.9l10.9,22.5l4.6,10l-10.2,5.4
		c-5.6,3-12.4,5.6-20.4,7.8l-3.9-10.5l-3.8-8.8c-0.1-0.4-0.8-1.8-2.1-4.5c-0.7-1.5-1.1-2.3-1.1-2.4l-11.1,0.7
		c-2,0.2-4.8,0.6-8.5,1.4c-3.9,0.9-7,1.6-9.2,2.4c-0.8,3.5-1.1,6.7-1.1,9.4c0,2.1,0.2,4.2,0.7,6.3l-22,0.7l1.2-3.8l4-9.6L307,76.7
		l10.4-20.4L329.7,33.6z M312.7,24.7L318,22l-7.9,17.6l-18.9,45.4l7.4-23.2l4.6-13.1l6-15.5L312.7,24.7z M345.5,109
		c1.3,4.2,2.2,7.6,2.7,10.3h-7.6l-9.1-0.2l-15.3-0.7l-16.6-1.3l2.1-0.3l9.1-0.7l15.5-0.4l9.8-0.5l6.8-0.5c0.5-1,0.7-1.5,0.8-1.7
		l1.3-3c0,0,0.1-0.2,0.2-0.4C345.3,109.5,345.4,109.3,345.5,109z M340.4,96c0.6,1,1.2,2.5,2,4.6l-5.8-0.8l-9-0.5h-2.4l-4.6,0.2
		l-3.9,0.2h-1.1h-0.7l2-0.5c5.1-1.3,9.1-2.1,12-2.5C331.4,96.4,335.3,96.2,340.4,96z M343.8,104.2l-9.5,0.8l-2,0.2
		c-3.8,0.4-8,1.1-12.5,2.1c-0.7,0.7-1.4,1.7-2.2,2.9l-1.4,2c-0.5-2.8-0.8-6-0.9-9.3c3.3-0.3,6.4-0.4,9.3-0.4
		C332.1,102.5,338.6,103.1,343.8,104.2z M326.7,60.5l-3.8,9.1l-5,13.5l20-0.3l-1-2.6C334.1,73.2,330.7,66.6,326.7,60.5z M326.9,69.4
		l0.2-1.4l0.7,1.1c1.5,2.5,2.8,5.4,4.1,8.7c-1.9,0.8-3.6,1.3-5.2,1.5l-0.1-1.7c-0.1-0.6-0.1-1.6-0.1-3
		C326.6,73.7,326.7,72,326.9,69.4z M341.7,64.6l-8.2-19.7l-2.2,5L350,90.9l7.5,16.8l1.1-0.5l-6.9-18L341.7,64.6z M346.9,17.2
		c1.3,0.3,3.6,1.2,6.9,2.6l2.4,10l2.6,9.8l3.5,11.2c0.1,0.5,0.4,1.3,0.9,2.7l2.1,6l0.9,2.4c0.1,0.3,0.2,0.6,0.2,1.1l-0.5-0.9
		l-7.1-13.7l-4.9-10.7c-1.3-2.9-2.6-6.4-4.1-10.5C348.3,23,347.4,19.8,346.9,17.2z M362.3,35.6l-1.8-8.8l3.8,9l4.7,11.8l0.6,2.9
		L370,59l-0.2,1.9l0.3,2.6c0,0.4,0,0.7-0.1,0.8l-0.1,0.1l-4.4-15.6L362.3,35.6z M372.4,71.4c1.5,1.9,3.1,4.3,4.9,7.3
		c2.3,3.8,3.6,6.4,4.1,7.5c0.4,1.1,1,3.2,1.9,6.5c0.3,1.4,0.8,3.3,1.6,5.9c-0.3-0.4-0.4-0.6-0.6-0.9c-0.1-0.2-0.2-0.3-0.3-0.3
		c-1.9-2.8-3.3-5-4-6.6c-0.9-1.8-2.1-4.5-3.6-8.2C374.8,79.2,373.5,75.4,372.4,71.4z"/>
	<path class="st0" d="M391,43.8c0.5,1.8,0.8,3.8,1.1,6l0.8,8.2l0.8,19.1l-0.3,16.7l-0.5,9l-0.2,0.8c-0.9-3.2-1.4-6.4-1.7-9.6
		l-0.2-2.4l-0.2-1.4L390,78.1l0.3-25.3C390.3,51.3,390.5,48.3,391,43.8z M394.6,121l0.4-4.3l13.7,0.3l12.5,0.7l2.1,0.2l3.9,0.3
		c0.1,0,0.8,0.1,2.1,0.3v0.2L428,119c-1.7,0.3-2.5,0.4-2.6,0.4l-4.6,0.5l-1.1,0.2l-15.8,0.8L394.6,121z M476.4,33.4
		c1.3,5.3,2,8.7,2.1,10.2l0.2,3.2v1.5c0,0.7-0.4,1.6-1.1,2.6l-2.7,3.5c-0.4,0.5-1.2,1.3-2.4,2.5c-1.6,1.6-3.3,2.8-4.9,3.4l-7.7,3.1
		c-2.8,1.1-6.3,2.4-10.6,3.8l-1.5,0.5v0.1l10.1,1.2c-0.1,0,0.7,0.2,2.4,0.5l4.6,0.9c3.7,0.8,7.1,1.7,10.2,2.7c1.3,1.3,2.8,3.3,4.5,6
		c1.7,2.6,2.9,5,3.6,7l-0.3,1.4c-1.1,5.4-2.8,10.4-5.2,14.9l-5,2.7l-8.3,3.8l-10.7,3.9c-2.1,0.7-4.4,1.1-7,1.3l-3.4,0.3
		c-2.7,0.1-4.1,0.2-3.9,0.2c-0.4,0-0.7,0-0.9-0.1h-1.1l-8.7-0.6l-10.4-0.4l-17.5-0.2l-4.6,0.1c0.1-2.7,0.2-3.7,0.2-3l0.2-3.2
		l0.1-2.1l0.3-14.4l-0.1-32.2l-0.2-11.2L396,36l-1.1-11.8l17.6,0.6l18.5-0.1l15.4-0.4l9.1-0.5c0.2,0,0.4-0.1,0.6-0.1h0.3
		c0.9,0.1,2.4,0.6,4.6,1.6l5,2.2C469.3,28.9,472.8,30.9,476.4,33.4z M467.3,18.8c-3.2,1.1-6.9,1.6-11.1,1.6H452h-1.1l-27-0.5
		l-24.5-0.2c8.4-2.9,17.7-4.4,28.1-4.4c1.5,0,3.8,0.1,7,0.2c1,0.1,3.4,0.3,7.4,0.6c2.6,0.3,5.3,0.6,8.1,0.9l9,1.2
		C459.9,18.3,462.6,18.5,467.3,18.8z M408.1,32l-4.8-0.2l0.4,7.4l0.5,18.1v23.5l-0.2,23.7l1.1-0.1l1.7-28.2l1.2-28L408.1,32z
		 M440,34.9l-10.3-1.8l-0.8,10c-0.1,0.9-0.2,2.4-0.2,4.5c0,6.2,0.4,11.4,1.1,15.8c3.6,0,7.8-0.9,12.5-2.6c1.9-3.3,2.9-5.3,3.1-5.8
		l1.5-4c0.3-0.8,0.4-1.2,0.4-1.4c0,0-0.1-0.5-0.4-1.4l-1.2-3.3C444.8,41.7,442.9,38.4,440,34.9z M432.2,74.4h-1.4
		c-0.7,5.1-1,10.5-1,16.4c0,2.5,0.1,4.5,0.2,6l0.6,8l2.9,1.1c2.9-1.6,5.3-3.1,7.2-4.4c2.5-4,3.7-6.8,3.7-8.3c0-0.6-0.2-2.4-0.7-5.2
		L443,82c-0.3-1.3-0.9-3.4-2.1-6.5C437.9,74.8,435,74.4,432.2,74.4z M433.2,37.2l1,4.8l0.9,9.1l0.5,7.1l-2.4,0.6
		c-0.8-2.9-1.2-6.4-1.2-10.3C432,43.6,432.4,39.9,433.2,37.2z M434.3,78c1.8,5.8,3,11.8,3.6,18l0.2,1.4l-3.6,2.2
		c-1-3.7-1.5-7.8-1.5-12.2C433,84.5,433.4,81.4,434.3,78z M440.3,42.2l0.2,0.1c1.4,2.1,2.7,4.4,3.7,7.1l-0.7,1.4
		c-1.1,2.2-2.1,3.9-3,5.3c-0.4-1.9-0.5-4.2-0.5-6.8C439.9,47.3,440,44.9,440.3,42.2z M448.9,76L448,75c1,3.8,1.8,7.9,2.4,12.2
		c0.6,4.3,0.8,6.8,0.8,7.4c0,2.5-1.2,6.3-3.6,11.3c-0.1,0.2-0.1,0.3-0.2,0.5c-0.2,0.3-0.3,0.6-0.5,0.8c2.6-2.9,4.9-6.1,6.8-9.6
		c0.4-2.4,0.6-4.4,0.6-6l-0.2-6.1c-0.1-1.5-0.5-2.8-1.2-3.9l-1.7-2.4C451,78.8,450.2,77.7,448.9,76z M447.8,32.5l0.2,0.5
		c1.5,2.7,2.8,5.7,3.9,9c1,3,1.4,4.9,1.4,5.7c0,0.5-0.2,1.3-0.5,2.4l-0.8,2.8c-0.5,1.4-1.2,3.4-2.4,5.9l-0.8,1.8
		c3.1-3.6,5.7-7.4,7.8-11.5c0.1-1.7,0.2-3,0.2-3.7c0-1.1-0.1-1.9-0.3-2.4c-0.2-0.5-0.9-1.4-2.1-2.8l-2.1-2.7
		C451.3,36.1,449.7,34.4,447.8,32.5z M453.2,116.5l11.4-3.7l9.4-3.5l-4.7,6.8l-3.1,0.2c-5.1,0.3-8.4,0.4-9.9,0.4
		c-1.4,0-2.3,0-2.9-0.1L453.2,116.5z M458.9,66.5l16.9-3.6l1.4,5.6L458.9,66.5z M467.1,23.2l6-1.8c0.7,0.6,1.7,1.9,3.1,3.9l2.7,3.9
		c0.2,0.2,0.5,0.6,0.8,1.1l-9.1-5.3L467.1,23.2z M481.8,102.3l4.2-9.6c0,0.5,0,0.9,0.1,1.1v0.8c0,3.5-0.6,8-1.7,13.2l-0.8,1.2
		c-1.7,2.8-3.1,5-4.4,6.6l-4.1,0.2c0.9-1.4,1.8-3.3,3-5.8l2.1-4.3C480.5,105.1,481,103.9,481.8,102.3z M480.5,31.8
		c0.4,0.6,1,1.6,1.9,3c0.9,1.4,1.4,2.3,1.7,2.8l0.7,1.3l0.5,0.6c0.2,0.3,0.3,0.6,0.5,1c-1,3.3-2,6.3-3,8.8l-0.2-1.7l-0.6-6.2
		c-0.2-1.8-0.4-3.3-0.7-4.3C480.8,34.5,480.5,32.7,480.5,31.8z"/>
	<path class="st0" d="M510.8,52.8l15.6-33.9l6.2-2l-6.5,14.5l-5.3,11.3l-12.7,26.3l-10,19.9l-7.8,15.2l4.3-12.1l4.9-12.5l5.9-14.5
		L510.8,52.8z M530.7,33.6l9-15.9c2.2,2.9,4.4,6.5,6.5,10.7l10.2,19.7l12.4,24.9l10.9,22.5l4.6,10l-10.2,5.4
		c-5.6,3-12.4,5.6-20.4,7.8l-3.9-10.5l-3.8-8.8c-0.1-0.4-0.8-1.8-2.1-4.5c-0.7-1.5-1.1-2.3-1.1-2.4l-11.1,0.7
		c-2,0.2-4.8,0.6-8.5,1.4c-3.9,0.9-7,1.6-9.2,2.4c-0.8,3.5-1.1,6.7-1.1,9.4c0,2.1,0.2,4.2,0.7,6.3l-22,0.7l1.2-3.8l4-9.6l11.1-23.3
		l10.4-20.4L530.7,33.6z M513.6,24.7L519,22l-7.9,17.6l-18.9,45.4l7.4-23.2l4.6-13.1l6-15.5L513.6,24.7z M546.4,109
		c1.3,4.2,2.2,7.6,2.7,10.3h-7.6l-9.1-0.2l-15.3-0.7l-16.6-1.3l2.1-0.3l9.1-0.7l15.5-0.4l9.8-0.5l6.8-0.5c0.5-1,0.7-1.5,0.8-1.7
		l1.3-3c0,0,0.1-0.2,0.2-0.4C546.2,109.5,546.3,109.3,546.4,109z M541.3,96c0.6,1,1.2,2.5,2,4.6l-5.8-0.8l-9-0.5h-2.4l-4.6,0.2
		l-3.9,0.2h-1.1h-0.7l2-0.5c5.1-1.3,9.1-2.1,12-2.5C532.3,96.4,536.2,96.2,541.3,96z M544.7,104.2l-9.5,0.8l-2,0.2
		c-3.8,0.4-8,1.1-12.5,2.1c-0.7,0.7-1.4,1.7-2.2,2.9l-1.4,2c-0.5-2.8-0.8-6-0.9-9.3c3.3-0.3,6.4-0.4,9.3-0.4
		C533.1,102.5,539.5,103.1,544.7,104.2z M527.6,60.5l-3.8,9.1l-5,13.5l20-0.3l-1-2.6C535,73.2,531.6,66.6,527.6,60.5z M527.9,69.4
		L528,68l0.7,1.1c1.5,2.5,2.8,5.4,4.1,8.7c-1.9,0.8-3.6,1.3-5.2,1.5l-0.1-1.7c-0.1-0.6-0.1-1.6-0.1-3
		C527.5,73.7,527.6,72,527.9,69.4z M542.6,64.6l-8.2-19.7l-2.2,5l18.7,40.9l7.5,16.8l1.1-0.5l-6.9-18L542.6,64.6z M547.8,17.2
		c1.3,0.3,3.6,1.2,6.9,2.6l2.4,10l2.6,9.8l3.5,11.2c0.1,0.5,0.4,1.3,0.9,2.7l2.1,6l0.9,2.4c0.1,0.3,0.2,0.6,0.2,1.1l-0.5-0.9
		l-7.1-13.7l-4.9-10.7c-1.3-2.9-2.6-6.4-4.1-10.5C549.2,23,548.3,19.8,547.8,17.2z M563.2,35.6l-1.8-8.8l3.8,9l4.7,11.8l0.6,2.9
		l0.4,8.5l-0.2,1.9l0.3,2.6c0,0.4,0,0.7-0.1,0.8l-0.1,0.1l-4.4-15.6L563.2,35.6z M573.3,71.4c1.5,1.9,3.1,4.3,4.9,7.3
		c2.3,3.8,3.6,6.4,4.1,7.5c0.4,1.1,1,3.2,1.9,6.5c0.3,1.4,0.8,3.3,1.6,5.9c-0.3-0.4-0.4-0.6-0.6-0.9c-0.1-0.2-0.2-0.3-0.3-0.3
		c-1.9-2.8-3.3-5-4-6.6c-0.9-1.8-2.1-4.5-3.6-8.2C575.8,79.2,574.4,75.4,573.3,71.4z"/>
	<path class="st0" d="M586.1,23l5-3.3l0.2,1.8c0.4,3.6,0.7,7,0.9,10.1c0,0.7,0.1,1.8,0.2,3.3c0.1,1.5,0.2,2.9,0.3,4.2
		c0.1,1.3,0.2,2.8,0.3,4.6c0.5,6.1,0.7,11,0.7,14.7c0,1.9-0.1,5-0.2,9.5c0,0.4,0,1.9-0.1,4.4c-0.1,2.5-0.2,5.3-0.3,8.5
		c-0.1,4.4-0.2,7.6-0.4,9.7l-1,12.9l-0.3,4.5c-0.2,2-0.6,4.1-1.1,6.3V94l-0.7-20.9l-0.9-17.3l-1.2-16.3L586.1,23z M621.2,116.8
		l-1.5-5.7c4.5,2.8,8.7,5.9,12.5,9.3l-15.3,0.2l-17.9-0.3l-5.1-0.4c1.6-0.6,3.7-1.1,6.5-1.4l7-0.8L621.2,116.8z M596.6,40.6
		l-1.1-20.7c2.9,1.5,7.3,4.1,13.1,7.6c5.8,3.5,10.5,6.5,13.9,8.8l6.2,4.3l8.7,6.1l12.2,8.9c0.5,0.3,1.5,1,3,2.1
		c0.5,0.3,1.1,0.8,2,1.4c0.9,0.6,1.5,1.1,2,1.4l1.2,0.8l-0.2-9.9l-0.2-1.8l-0.2-4.8c-0.4-7.9-1.6-14.7-3.6-20.4h18.3l0.2,22
		L671.7,64l-1.2,32.7l-0.4,22.3l-1.7-1.2l-7.1-6.4l-7.6-7.1l-12.9-11.7l-10.2-8.4l-10-7.7l-8-5.4l-4-2.5l0.8,9.9l1.4,12.4l1.6,10.3
		c0.3,1.7,0.7,4.1,1.4,7.1l0.8,3.3l0.2,1.2l-5.9-0.1l-13.1,0.2c0.3-1.2,0.5-2.9,0.8-5.2l0.4-3.3c0-0.4,0.1-0.9,0.1-1.6l0.3-20.6
		l-0.2-25.2L596.6,40.6z M609.5,21.6l-5-3.5c3.6,1.3,7.2,2.9,10.6,4.6c7.2,3.7,13,7,17.4,10l12,8c1.3,0.8,2.6,1.4,3.7,1.9
		c1.3,0.5,2.4,0.8,3.2,0.9c0.7,2.4,1.4,5.4,2.1,9l0.4,1.8l-26.5-20L609.5,21.6z M615.9,58.3l-8.6-7.2c0.1,2.1,0.2,3,0.2,2.7
		c0.1,1.7,0.2,3,0.4,3.8l0.9,0.7c2.8,2,7.6,5.6,14.2,10.9c5.3,4.2,10.9,8.8,16.8,13.9c2.7,2.2,6,5.1,10.1,8.7
		c4,3.6,8.2,7.5,12.6,11.6v-0.8l-10.3-10.3l-18.4-17.8l-10.6-9.7L615.9,58.3z M612.7,75.5l1.1,0.8l10.9,8.9l2.1,1.7l8.5,7.3
		l11.4,10.3c1.7,1.5,3.8,3.5,6.3,6l-3.6-2.3l-8.3-6.6l-7.8-5.8l-10-6.8l-9-5.5c-0.3-0.3-0.5-0.8-0.6-1.7c0-0.1-0.1-0.8-0.4-2.1
		C613,77.9,612.8,76.5,612.7,75.5z M617.7,99.9l-1.8-7.9c1.1,0.5,1.9,0.9,2.4,1.2c0.3,0.1,0.6,0.3,1.1,0.7c0.3,0.2,1.2,0.9,3,2.1
		c3.1,2.1,4.7,3.2,4.8,3.3l7.7,5.8c2.5,2,4.3,3.5,5.3,4.5l-13-5.8L617.7,99.9z M648.4,35.5l-23.1-14.8c1.3,0.4,3.9,1.3,7.7,2.7
		l2.4,0.9c0.1,0,0.4,0.1,0.8,0.3c0.5,0.2,1,0.4,1.5,0.5c0.3,0.1,0.6,0.2,0.8,0.3c0.3,0.1,0.5,0.2,0.6,0.3c0.6,0.3,2.2,0.9,4.8,1.9
		C646.1,30.6,647.5,33.3,648.4,35.5z M643.9,17.8c5.8,0.3,12.3,1.2,19.5,2.8l-15,0.4c1.2,4.8,1.9,8.1,2.1,10l-1.4-2.9
		c-1.1-2-1.6-3-1.6-3l-0.8-1.8c-0.1-0.2-0.3-0.6-0.6-1.3c-0.3-0.7-0.7-1.4-1.2-2.4C644.7,19.4,644.4,18.8,643.9,17.8z M676.3,61.9
		l1,14.4l0.7,14.2l0.8,30.2h-4.4l0.1-19.4l1.3-33.2C675.7,65.4,675.9,63.3,676.3,61.9z"/>
</g>
<path vector-effect="non-scaling-stroke" class="st1" d="M703,84.9l-0.6,0.6l-8.9,8.9l8.9,8.9c4.6,4.6,10.7,7.4,17.2,7.8
	c6.5,0.4,12.9-1.5,18.1-5.5v-3l-22.8-22.8v0c-1.3-1.3-1.3-3.5,0-4.8c0,0,0,0,0,0c1.3-1.3,3.5-1.3,4.8,0l18,18V76.9
	c-0.3-0.1-0.5-0.3-0.7-0.5l-13.6-13.6c-1.3-1.3-1.3-3.5,0-4.8c1.3-1.3,3.5-1.3,4.8,0l9.5,9.5V40c0-1.9,1.5-3.4,3.4-3.4
	c1.9,0,3.4,1.5,3.4,3.4v27.5l9.5-9.5c1.3-1.3,3.5-1.3,4.8,0c1.3,1.3,1.3,3.5,0,4.8l-13.6,13.6c-0.2,0.2-0.5,0.3-0.7,0.5V93l18-18
	c1.3-1.3,3.5-1.3,4.8,0c1.3,1.3,1.3,3.5,0,4.8l-22.8,22.8v19c0,1.9,1.5,3.4,3.4,3.4s3.4-1.5,3.4-3.4v-12.2
	c4.8,1.8,10.1,2.2,15.2,1.2c5.1-1.1,9.7-3.6,13.4-7.3l8.9-8.9l-8.9-8.9l-0.6-0.6c8.2-6.6,12.9-16.5,12.9-27V41.7h-16.2
	c-4.3,0-8.5,0.8-12.4,2.3c-0.6-8.6-4.3-16.6-10.4-22.7L741,9.4l-11.9,11.9c-6.1,6.1-9.8,14.2-10.4,22.7c-4-1.5-8.2-2.3-12.4-2.3
	h-16.2v16.2C690.1,68.4,694.8,78.3,703,84.9L703,84.9z"/>
</svg>
